<?xml version="1.0" standalone="no"?>
<!DOCTYPE svg PUBLIC "-//W3C//DTD SVG 20010904//EN"
 "http://www.w3.org/TR/2001/REC-SVG-20010904/DTD/svg10.dtd">
<svg version="1.0" xmlns="http://www.w3.org/2000/svg"
 width="512.000000pt" height="512.000000pt" viewBox="0 0 512.000000 512.000000"
 preserveAspectRatio="xMidYMid meet">

<g transform="translate(0.000000,512.000000) scale(0.100000,-0.100000)"
fill="#000000" stroke="none">
<path d="M2459 4866 c-109 -29 -214 -121 -277 -244 -104 -202 -152 -411 -152
-657 l0 -123 -97 97 c-161 159 -364 283 -566 346 -75 24 -100 27 -180 23 -77
-3 -103 -9 -157 -34 -83 -39 -145 -101 -184 -184 -26 -55 -31 -80 -34 -160 -4
-89 -1 -104 31 -202 20 -59 49 -133 66 -166 57 -113 172 -272 269 -372 l98
-100 -122 0 c-245 0 -454 -48 -657 -152 -194 -100 -292 -289 -244 -471 44
-166 175 -277 428 -361 161 -54 238 -67 425 -73 l172 -6 -65 -60 c-163 -153
-299 -364 -368 -571 -34 -100 -37 -116 -33 -205 3 -83 7 -105 35 -163 39 -82
99 -142 183 -182 61 -29 72 -31 180 -31 95 0 126 5 180 24 200 72 390 192 541
341 l99 96 0 -132 c0 -228 44 -422 140 -620 108 -222 289 -322 486 -269 195
53 319 232 401 575 19 81 26 143 30 275 l6 171 61 -64 c160 -168 363 -298 571
-368 101 -34 116 -36 205 -32 80 3 105 8 160 34 83 39 145 101 184 184 26 55
31 79 34 160 3 85 0 105 -27 190 -62 193 -187 394 -347 557 l-90 93 132 0
c150 0 314 24 439 65 103 34 232 95 291 137 98 70 174 213 174 328 0 111 -67
243 -163 318 -79 63 -239 133 -392 171 -118 29 -222 41 -359 41 l-123 0 97 99
c158 161 284 366 345 564 24 75 27 100 23 180 -3 77 -9 103 -34 157 -39 83
-101 145 -184 184 -83 39 -209 47 -309 21 -199 -52 -421 -186 -603 -366 l-88
-86 0 133 c0 374 -142 736 -333 848 -89 53 -201 68 -298 42z m216 -180 c56
-34 97 -86 145 -188 74 -159 110 -337 110 -549 0 -198 -35 -374 -105 -532
l-24 -55 -53 14 c-91 25 -241 28 -341 6 l-88 -18 -20 45 c-38 86 -77 217 -94
320 -27 161 -17 407 23 563 29 113 90 258 132 318 74 104 211 137 315 76z
m-1318 -567 c112 -40 158 -63 272 -139 115 -77 252 -207 337 -319 57 -75 173
-289 188 -346 5 -16 -7 -28 -57 -60 -79 -50 -181 -153 -232 -233 -48 -75 -44
-75 -200 3 -204 102 -397 275 -529 472 -179 270 -214 475 -101 588 73 74 177
85 322 34z m2647 19 c53 -16 118 -81 134 -134 27 -92 1 -228 -73 -375 -81
-160 -250 -359 -404 -475 -74 -56 -286 -171 -346 -188 -16 -5 -28 6 -59 55
-52 80 -145 174 -227 229 -35 24 -65 44 -67 45 -9 7 65 173 107 243 161 268
448 504 721 593 65 21 156 24 214 7z m-1237 -933 c114 -39 178 -79 269 -169
90 -91 130 -153 170 -271 25 -71 28 -94 28 -205 0 -111 -3 -134 -28 -205 -40
-118 -80 -180 -170 -271 -91 -90 -154 -130 -271 -170 -69 -24 -96 -28 -200
-28 -138 -1 -223 20 -335 81 -85 47 -216 178 -263 263 -61 112 -82 197 -81
335 1 102 5 132 27 200 81 243 283 419 535 465 83 16 232 4 319 -25z m-1366
-291 c103 -18 217 -51 302 -89 l55 -24 -14 -53 c-25 -91 -28 -241 -6 -341 l18
-88 -45 -20 c-328 -147 -774 -146 -1089 1 -158 74 -217 145 -217 260 0 115 59
186 217 260 91 42 202 76 318 95 110 19 348 18 461 -1z m2842 -8 c151 -35 318
-105 386 -161 88 -75 114 -203 59 -296 -37 -63 -77 -95 -183 -145 -164 -78
-340 -114 -556 -114 -199 0 -368 34 -541 108 l-47 21 15 53 c25 91 28 241 6
342 l-19 88 46 20 c77 33 221 77 306 93 105 19 429 13 528 -9z m-2383 -803
c47 -75 150 -180 230 -233 36 -24 66 -44 68 -45 2 -2 -11 -39 -28 -83 -85
-221 -281 -455 -508 -606 -268 -179 -474 -214 -587 -101 -76 75 -85 178 -30
332 95 265 312 522 580 686 60 37 211 107 230 107 6 0 26 -26 45 -57z m1595
-8 c61 -30 149 -84 196 -119 266 -200 499 -557 499 -766 0 -148 -90 -240 -237
-240 -64 0 -190 38 -284 85 -220 112 -447 332 -576 557 -47 82 -100 205 -92
212 2 1 31 20 63 42 78 51 181 154 231 232 48 75 43 75 200 -3z m-930 -371
c76 -4 121 -1 188 14 l88 18 20 -45 c121 -270 144 -625 59 -931 -26 -91 -97
-243 -134 -288 -103 -120 -277 -117 -375 7 -18 22 -49 77 -71 123 -74 159
-110 337 -110 549 0 198 35 374 105 532 l24 55 53 -14 c29 -8 98 -17 153 -20z"/>
</g>
</svg>
